<?xml version="1.0"?>
<svg xmlns="http://www.w3.org/2000/svg" xmlns:xlink="http://www.w3.org/1999/xlink" xmlns:svgjs="http://svgjs.com/svgjs" version="1.1" width="512" height="512" x="0" y="0" viewBox="0 0 512 512" style="enable-background:new 0 0 512 512" xml:space="preserve" class=""><circle r="256" cx="256" cy="256" fill="#14212c" shape="circle"/><g transform="matrix(0.7,0,0,0.7,76.80000000000001,76.8001533508301)">
<path xmlns="http://www.w3.org/2000/svg" style="" d="M512,256c-51.102-88.337-146.608-147.774-256-147.774S51.102,167.663,0,256  c51.102,88.337,146.608,147.774,256,147.774S460.898,344.337,512,256z" fill="#d0eeef" data-original="#d0eeef"/>
<circle xmlns="http://www.w3.org/2000/svg" style="" cx="256" cy="256" r="146.286" fill="#41bbbe" data-original="#41bbbe"/>
<circle xmlns="http://www.w3.org/2000/svg" style="" cx="256" cy="256" r="78.769" fill="#06484a" data-original="#06484a"/>
<g xmlns="http://www.w3.org/2000/svg">
	<path style="" d="M75.956,135.033c-4.661,0-8.44-3.778-8.44-8.44V75.956c0-4.662,3.779-8.44,8.44-8.44h50.637   c4.661,0,8.44,3.778,8.44,8.44s-3.779,8.44-8.44,8.44H84.396v42.198C84.396,131.255,80.617,135.033,75.956,135.033z" fill="#20aab0" data-original="#20aab0"/>
	<path style="" d="M436.044,135.033c-4.662,0-8.44-3.778-8.44-8.44V84.396h-42.198c-4.662,0-8.44-3.778-8.44-8.44   s3.778-8.44,8.44-8.44h50.637c4.662,0,8.44,3.778,8.44,8.44v50.637C444.484,131.255,440.706,135.033,436.044,135.033z" fill="#20aab0" data-original="#20aab0"/>
	<path style="" d="M126.593,444.484H75.956c-4.661,0-8.44-3.778-8.44-8.44v-50.637c0-4.662,3.779-8.44,8.44-8.44   s8.44,3.778,8.44,8.44v42.198h42.198c4.661,0,8.44,3.778,8.44,8.44S131.254,444.484,126.593,444.484z" fill="#20aab0" data-original="#20aab0"/>
	<path style="" d="M436.044,444.484h-50.637c-4.662,0-8.44-3.778-8.44-8.44s3.778-8.44,8.44-8.44h42.198v-42.198   c0-4.662,3.778-8.44,8.44-8.44s8.44,3.778,8.44,8.44v50.637C444.484,440.706,440.706,444.484,436.044,444.484z" fill="#20aab0" data-original="#20aab0"/>
</g>
<path xmlns="http://www.w3.org/2000/svg" style="" d="M469.802,247.56H264.44V42.198c0-4.662-3.778-8.44-8.44-8.44c-4.661,0-8.44,3.778-8.44,8.44V247.56  H42.198c-4.661,0-8.44,3.778-8.44,8.44c0,4.662,3.779,8.44,8.44,8.44H247.56v205.363c0,4.662,3.779,8.44,8.44,8.44  c4.662,0,8.44-3.778,8.44-8.44V264.44h205.363c4.662,0,8.44-3.778,8.44-8.44C478.242,251.338,474.464,247.56,469.802,247.56z" fill="#14858a" data-original="#14858a"/>
<g xmlns="http://www.w3.org/2000/svg">
</g>
<g xmlns="http://www.w3.org/2000/svg">
</g>
<g xmlns="http://www.w3.org/2000/svg">
</g>
<g xmlns="http://www.w3.org/2000/svg">
</g>
<g xmlns="http://www.w3.org/2000/svg">
</g>
<g xmlns="http://www.w3.org/2000/svg">
</g>
<g xmlns="http://www.w3.org/2000/svg">
</g>
<g xmlns="http://www.w3.org/2000/svg">
</g>
<g xmlns="http://www.w3.org/2000/svg">
</g>
<g xmlns="http://www.w3.org/2000/svg">
</g>
<g xmlns="http://www.w3.org/2000/svg">
</g>
<g xmlns="http://www.w3.org/2000/svg">
</g>
<g xmlns="http://www.w3.org/2000/svg">
</g>
<g xmlns="http://www.w3.org/2000/svg">
</g>
<g xmlns="http://www.w3.org/2000/svg">
</g>
</g></svg>
