<?xml version="1.0" standalone="no"?>
<svg xmlns="http://www.w3.org/2000/svg" width="219.16" height="33.04" viewBox="0 0 219.16 33.04"><g fill="#ff6506" color="#ff6506" transform="translate(0 0) scale(0.3304)"><svg width="100.0" height="100.0" x="0.0" y="0.0" viewBox="0 0 100 100"><g><path d="M37.039,20.894h26.345l2.408-3.436c1.967-2.965,4.134-5.805,6.009-8.83c0.89-1.437,2.558-3.789,1.901-5.609   c-0.469-1.3-1.669-1.743-2.955-1.969c-0.93-0.163-5.684-1.364-7.603-0.972c-1.703,0.349-3.276,1.157-4.91,1.725   c-2.301,0.8-4.848,1.471-7.372,1.333c-2.181-0.119-4.659-0.398-6.715-1.141c-1.704-0.617-3.35-1.525-5.153-1.834   c-1.557-0.267-7.228,0.519-8.369,0.715c-8.031,1.382-2.192,7.493,4.006,16.582L37.039,20.894z M95.081,69.075   c-6.754-15.562-18.983-32.532-31.794-40.719H36.707c-12.808,8.189-25.035,25.16-31.787,40.719   c-6.77,15.598,1.351,30.924,16.825,30.924h56.511C93.73,99.999,101.851,84.673,95.081,69.075z M52.47,83.203v6.316h-5.029v-5.948   c-3.863-0.122-7.726-1.226-9.935-2.698l1.657-5.765c2.392,1.411,5.826,2.698,9.567,2.698c3.863,0,6.5-1.901,6.5-4.844   c0-2.76-2.147-4.539-6.685-6.194c-6.44-2.331-10.61-5.274-10.61-10.978c0-5.274,3.679-9.321,9.873-10.425v-6.01h5.029v5.703   c3.863,0.123,6.5,1.042,8.463,2.024l-1.655,5.641c-1.473-0.675-4.171-2.085-8.341-2.085c-4.292,0-5.825,2.208-5.825,4.294   c0,2.514,2.208,3.923,7.419,6.009c6.869,2.576,9.936,5.888,9.936,11.345C62.834,77.501,59.216,82.1,52.47,83.203z"></path></g></svg></g><path fill="#000000" fill-rule="nonzero" d="M4.24 32.68L0 32.68L6.88 0.28L11.24 0.28L18.16 32.68L13.88 32.68L12.40 24.52L5.80 24.52L4.24 32.68ZM9.08 6.68L6.40 21.28L11.80 21.28L9.08 6.68ZM29.08 33.04L29.08 33.04Q26.28 33.04 24.42 31.84Q22.56 30.64 21.60 28.52Q20.64 26.40 20.48 23.60L20.48 23.60L24.48 22.52Q24.60 24.24 25.02 25.84Q25.44 27.44 26.40 28.46Q27.36 29.48 29.08 29.48L29.08 29.48Q30.84 29.48 31.74 28.50Q32.64 27.52 32.64 25.68L32.64 25.68Q32.64 23.48 31.64 22.14Q30.64 20.80 29.12 19.44L29.12 19.44L23.68 14.64Q22.08 13.24 21.32 11.58Q20.56 9.92 20.56 7.48L20.56 7.48Q20.56 3.92 22.60 1.96Q24.64 0 28.16 0L28.16 0Q30.08 0 31.54 0.50Q33 1 33.98 2.04Q34.96 3.08 35.54 4.66Q36.12 6.24 36.32 8.36L36.32 8.36L32.48 9.40Q32.36 7.80 32 6.46Q31.64 5.12 30.74 4.30Q29.84 3.48 28.16 3.48L28.16 3.48Q26.48 3.48 25.54 4.38Q24.60 5.28 24.60 7.04L24.60 7.04Q24.60 8.52 25.10 9.48Q25.60 10.44 26.72 11.44L26.72 11.44L32.20 16.24Q34.04 17.84 35.44 20.06Q36.84 22.28 36.84 25.32L36.84 25.32Q36.84 27.72 35.84 29.46Q34.84 31.20 33.10 32.12Q31.36 33.04 29.08 33.04ZM48 33.04L48 33.04Q45.20 33.04 43.34 31.84Q41.48 30.64 40.52 28.52Q39.56 26.40 39.40 23.60L39.40 23.60L43.40 22.52Q43.52 24.24 43.94 25.84Q44.36 27.44 45.32 28.46Q46.28 29.48 48 29.48L48 29.48Q49.76 29.48 50.66 28.50Q51.56 27.52 51.56 25.68L51.56 25.68Q51.56 23.48 50.56 22.14Q49.56 20.80 48.04 19.44L48.04 19.44L42.60 14.64Q41 13.24 40.24 11.58Q39.48 9.92 39.48 7.48L39.48 7.48Q39.48 3.92 41.52 1.96Q43.56 0 47.08 0L47.08 0Q49 0 50.46 0.50Q51.92 1 52.90 2.04Q53.88 3.08 54.46 4.66Q55.04 6.24 55.24 8.36L55.24 8.36L51.40 9.40Q51.28 7.80 50.92 6.46Q50.56 5.12 49.66 4.30Q48.76 3.48 47.08 3.48L47.08 3.48Q45.40 3.48 44.46 4.38Q43.52 5.28 43.52 7.04L43.52 7.04Q43.52 8.52 44.02 9.48Q44.52 10.44 45.64 11.44L45.64 11.44L51.12 16.24Q52.96 17.84 54.36 20.06Q55.76 22.28 55.76 25.32L55.76 25.32Q55.76 27.72 54.76 29.46Q53.76 31.20 52.02 32.12Q50.28 33.04 48 33.04ZM71.92 32.68L59.28 32.68L59.28 0.28L71.84 0.28L71.84 3.64L63.80 3.64L63.80 14.36L70.32 14.36L70.32 17.56L63.80 17.56L63.80 29.44L71.92 29.44L71.92 32.68ZM83.64 32.68L79.12 32.68L79.12 3.64L73.64 3.64L73.64 0.28L88.96 0.28L88.96 3.64L83.64 3.64L83.64 32.68ZM96.76 32.68L92.32 32.68L92.32 0.28L96.76 0.28L96.76 32.68ZM115.32 32.68L101 32.68L101 29.44L110.52 3.52L101.60 3.52L101.60 0.28L115.32 0.28L115.32 2.24L105.28 29.44L115.32 29.44L115.32 32.68ZM131.32 32.68L118.68 32.68L118.68 0.28L131.24 0.28L131.24 3.64L123.20 3.64L123.20 14.36L129.72 14.36L129.72 17.56L123.20 17.56L123.20 29.44L131.32 29.44L131.32 32.68ZM139.48 32.68L134.96 32.68L134.96 0.28L141.48 0.28Q144.72 0.28 146.84 1.14Q148.96 2 149.98 3.90Q151 5.80 151 8.88L151 8.88Q151 10.76 150.60 12.30Q150.20 13.84 149.32 14.90Q148.44 15.96 147 16.44L147 16.44L151.60 32.68L147.24 32.68L143 17.48L139.48 17.48L139.48 32.68ZM139.48 3.52L139.48 14.24L141.20 14.24Q143.12 14.24 144.32 13.76Q145.52 13.28 146.08 12.12Q146.64 10.96 146.64 8.88L146.64 8.88Q146.64 6.04 145.60 4.78Q144.56 3.52 141.48 3.52L141.48 3.52L139.48 3.52ZM163.36 33.04L163.36 33.04Q160.56 33.04 158.70 31.84Q156.84 30.64 155.88 28.52Q154.92 26.40 154.76 23.60L154.76 23.60L158.76 22.52Q158.88 24.24 159.30 25.84Q159.72 27.44 160.68 28.46Q161.64 29.48 163.36 29.48L163.36 29.48Q165.12 29.48 166.02 28.50Q166.92 27.52 166.92 25.68L166.92 25.68Q166.92 23.48 165.92 22.14Q164.92 20.80 163.40 19.44L163.40 19.44L157.96 14.64Q156.36 13.24 155.60 11.58Q154.84 9.92 154.84 7.48L154.84 7.48Q154.84 3.92 156.88 1.96Q158.92 0 162.44 0L162.44 0Q164.36 0 165.82 0.50Q167.28 1 168.26 2.04Q169.24 3.08 169.82 4.66Q170.40 6.24 170.60 8.36L170.60 8.36L166.76 9.40Q166.64 7.80 166.28 6.46Q165.92 5.12 165.02 4.30Q164.12 3.48 162.44 3.48L162.44 3.48Q160.76 3.48 159.82 4.38Q158.88 5.28 158.88 7.04L158.88 7.04Q158.88 8.52 159.38 9.48Q159.88 10.44 161 11.44L161 11.44L166.48 16.24Q168.32 17.84 169.72 20.06Q171.12 22.28 171.12 25.32L171.12 25.32Q171.12 27.72 170.12 29.46Q169.12 31.20 167.38 32.12Q165.64 33.04 163.36 33.04Z" transform="translate(48.04 0) scale(1)"></path></svg>