<?xml version="1.0"?>
<svg xmlns="http://www.w3.org/2000/svg" xmlns:xlink="http://www.w3.org/1999/xlink" xmlns:svgjs="http://svgjs.com/svgjs" version="1.1" width="512" height="512" x="0" y="0" viewBox="0 0 512 512" style="enable-background:new 0 0 512 512" xml:space="preserve" class=""><circle r="256" cx="256" cy="256" fill="#14212c" shape="circle"/><g transform="matrix(0.7,0,0,0.7,76.56352729797365,75.75171947479248)"><linearGradient xmlns="http://www.w3.org/2000/svg" id="linear-gradient" gradientUnits="userSpaceOnUse" x1="78.398" x2="446.672" y1="428.039" y2="59.764"><stop offset="0" stop-color="#41dfd0"/><stop offset="1" stop-color="#ee83ef"/></linearGradient><g xmlns="http://www.w3.org/2000/svg" id="gradient"><path d="m448.275 64.834a16.023 16.023 0 0 0 -19.153-12.049l-35.07 7.986-14.234-27.191a16.017 16.017 0 0 0 -21.595-6.755l-141.823 74.243c-.152.08-.294.171-.438.259l-156.553 35.649h-27.409a16.018 16.018 0 0 0 -16 16v206.048a16.018 16.018 0 0 0 16 16h254.849c-.126.152-.259.3-.384.448a64.008 64.008 0 0 0 49.415 104.533q3.228 0 6.487-.324a63.94 63.94 0 0 0 55.66-47.988 63.977 63.977 0 0 0 34.5-113.226c-.276-.226-.562-.434-.84-.655v-21.467l50.288-11.452a16 16 0 0 0 12.049-19.154zm-82.632-23.834 12.272 23.445-100.992 23zm7.505 405.4a48 48 0 0 1 -74.3-60.791 47.925 47.925 0 0 1 13.757-11.534c.023-.012.045-.026.067-.039a47.89 47.89 0 0 1 18.549-5.794q2.442-.245 4.865-.243a48.006 48.006 0 0 1 37.061 78.4zm-222.722-190.4a73.418 73.418 0 1 1 73.417 73.418 73.5 73.5 0 0 1 -73.417-73.418zm22.437 73.418h-90.127a30.322 30.322 0 0 0 -21.13-21.13v-104.576a30.322 30.322 0 0 0 21.13-21.13h90.127a89.336 89.336 0 0 0 0 146.836zm140.398-73.418a89.376 89.376 0 0 0 -38.438-73.418h90.128a30.323 30.323 0 0 0 21.129 21.13v100.572c-.15.013-.3.018-.448.033a63.582 63.582 0 0 0 -43.165 23.157c-.523.638-1.028 1.288-1.524 1.944h-66.12a89.376 89.376 0 0 0 38.438-73.418zm115.889 142.4a47.85 47.85 0 0 1 -29.192 16.937 63.882 63.882 0 0 0 -23.433-48.867c-.134-.11-.274-.21-.409-.319a15.994 15.994 0 0 1 26.016-10.53 8 8 0 1 0 10.132-12.383 31.983 31.983 0 0 0 -50.458 14.189 63.177 63.177 0 0 0 -15.336-4.572 47.993 47.993 0 1 1 82.68 45.545zm-27.07-93.611v-108a8 8 0 0 0 -8-8 14.221 14.221 0 0 1 -14.2-14.205 8 8 0 0 0 -8-8h-296.069a8 8 0 0 0 -8 8 14.221 14.221 0 0 1 -14.205 14.205 8 8 0 0 0 -8 8v118.424a8 8 0 0 0 8 8 14.221 14.221 0 0 1 14.205 14.2 8 8 0 0 0 8 8h256.3a63.661 63.661 0 0 0 -2.167 6.874c-.106.009-.213.013-.319.023a63.963 63.963 0 0 0 -22.823 6.709h-274.802v-206.043h383.687v155.548a63.214 63.214 0 0 0 -13.607-3.74zm29.607-107.391 6.6 28.993a29.838 29.838 0 0 0 -6.6 4.8zm-16-60.417h-150.871l124.952-28.455a30.305 30.305 0 0 0 25.306 15.918l2.9 12.719a15.92 15.92 0 0 0 -2.287-.187zm16 142.958v-13.959l1-.227a8 8 0 0 0 6.023-9.577 14.2 14.2 0 0 1 10.7-17 8 8 0 0 0 6.024-9.577l-26.294-115.47a8 8 0 0 0 -9.577-6.023 14.206 14.206 0 0 1 -17-10.7 8 8 0 0 0 -9.576-6.024l-200.226 45.6h-61.293l301.206-68.595 45.749 200.9zm-177.639-44.084v5.345a8 8 0 0 1 -16 0v-5.342a9.656 9.656 0 0 0 -4.31-8.052 17.787 17.787 0 0 0 -19.789 0 9.679 9.679 0 0 0 2.308 17.236l20.232 6.744a25.68 25.68 0 0 1 6.123 45.73 33.883 33.883 0 0 1 -10.769 4.717v5.583a8 8 0 0 1 -16 0v-5.586a33.881 33.881 0 0 1 -10.77-4.719 25.628 25.628 0 0 1 -11.434-21.366v-5.345a8 8 0 0 1 16 0v5.342a9.656 9.656 0 0 0 4.309 8.052 17.784 17.784 0 0 0 19.789 0 9.679 9.679 0 0 0 -2.307-17.236l-20.23-6.74a25.681 25.681 0 0 1 -6.124-45.73 33.9 33.9 0 0 1 10.769-4.718v-5.582a8 8 0 0 1 16 0v5.582a33.881 33.881 0 0 1 10.77 4.719 25.626 25.626 0 0 1 11.433 21.366zm-153.256.118a20.027 20.027 0 1 0 20.027 20.027 20.05 20.05 0 0 0 -20.027-20.027zm0 24.054a4.027 4.027 0 1 1 4.027-4.027 4.032 4.032 0 0 1 -4.027 4.027zm244.252 16a20.027 20.027 0 1 0 -20.027-20.027 20.05 20.05 0 0 0 20.027 20.027zm0-24.054a4.027 4.027 0 1 1 -4.027 4.027 4.032 4.032 0 0 1 4.027-4.027zm12.344 150.515a8 8 0 0 1 -11.258 1.126 16 16 0 0 0 -20.263 24.768 8 8 0 0 1 -10.132 12.383 32 32 0 0 1 40.527-49.534 8 8 0 0 1 1.126 11.257z" fill="url(#linear-gradient)" data-original="url(#linear-gradient)" style="" class=""/></g></g></svg>
